<?xml version="1.0" encoding="utf-8"?>
<!-- Generator: Adobe Illustrator 23.0.1, SVG Export Plug-In . SVG Version: 6.00 Build 0)  -->
<svg version="1.1" id="Calque_1" xmlns="http://www.w3.org/2000/svg" xmlns:xlink="http://www.w3.org/1999/xlink" x="0px" y="0px"
	 viewBox="0 0 250 161.1" style="enable-background:new 0 0 250 161.1;" xml:space="preserve">
<style type="text/css">
	.st0{fill:#FFFFFF;stroke:#000000;stroke-width:0.5;stroke-miterlimit:10;}
	.st1{opacity:0.75;}
	.st2{fill:#010202;}
	.st3{fill:none;}
	.st4{fill:#0300b6;}
	.st5{fill:none;stroke:#010202;stroke-miterlimit:10;}
	.st6{fill:#FFFFFF;stroke:#FFFFFF;stroke-width:0.75;stroke-miterlimit:10;}
</style>
<g>
	<g>
		<path class="st0" d="M151.2,81.1c-1.3-0.1-1.2,0.7-1.2,1.6c0,6.5,0,12.9,0,19.4c0,6.5,0,12.9,0,19.4c0,0.7-0.3,1.7,1,1.6
			c1.2-0.1,1.4,0.5,1.3,1.5c-0.1,0.9,0.3,1.2,1.1,1.1c0.5,0,1.1,0,1.6,0c1.1,0.1,1.6-0.3,1.5-1.5c-0.1-0.5-0.1-1.2,0.8-1.1
			c1.6,0.2,1.5-0.8,1.5-1.8c0-12.6,0-25.3,0-37.9c0-1,0.4-2.3-1.4-2.3c-0.4,0-0.4-0.5-0.4-0.8c0-0.6,0.1-1.2,0-1.8
			c-0.6-2.4-2.6-0.6-3.8-1.3c-0.7-0.4-1.4,0.1-1.4,1c0,0.3,0,0.6,0,1c0,0.4,0,0.8,0.1,1.1C151.8,80.8,151.8,81.2,151.2,81.1z
			 M155.8,120.9c-1.5-0.1-3.4,0.6-4.4-0.3c-1-0.9-0.3-2.9-0.3-4.4c-0.1-1,0-2,0-2.9c0-2.2,0-4.5,0-6.7c0-0.8,0.2-1.1,1.1-1.2
			c5.1-0.3,5.1-0.3,5.1,4.8c0,3,0,6.1,0,9.1C157.2,120.5,157,121,155.8,120.9z M152.1,82.1c5.1-0.3,5.1-0.3,5.1,4.8c0,1,0,2,0,2.9
			c0,2.2,0,4.3,0,6.5c0,0.9-0.2,1.3-1.2,1.2c-1.3-0.1-2.6-0.1-3.9,0c-0.9,0-1.1-0.3-1.1-1.1c0-4.4,0-8.8,0-13.2
			C151,82.5,151.2,82.2,152.1,82.1z"/>
		<path class="st0" d="M164.3,77.4c-2,0-3.9,0-5.9,0c-0.4,0-0.7,0.1-0.8,0.6c-0.5,1.7,0.1,2.5,1.8,2.5c0.7,0,1.3,0,2,0
			c1,0,2,0,2.9,0c1.3,0,0.9-1,0.9-1.6C165.3,78.2,165.5,77.4,164.3,77.4z"/>
		<path class="st0" d="M151.6,93.4c0,3.8,0,3.8,3.7,3.5c0,0,0.1,0,0.2,0c0.8,0,1-0.3,1-1.1c0-2,0-3.9,0-5.8h0c0-1.2,0-2.4,0-3.6
			c0-3.7,0-3.7-3.8-3.5c-1,0-1.2,0.4-1.2,1.3C151.7,87.2,151.7,90.3,151.6,93.4z"/>
		<path class="st0" d="M167.2,106.1c-1.1,0-1.5,0.3-1.5,1.5c0.1,3,0,6.1,0,9.1c0,3.7,0,3.7,3.7,3.6c1,0,1.2-0.4,1.1-1.3
			c0-1.9,0-3.8,0-5.7c0-1.3,0-2.6,0-3.9C170.7,106.1,170.7,106.1,167.2,106.1z"/>
		<path class="st0" d="M165.4,81.1c-1.3,0-1.2,0.8-1.2,1.6c0,4.5,0,8.9,0,13.3c0,8.5,0,17,0,25.5c0,0.9,0,1.7,1.3,1.5
			c1-0.1,1.1,0.5,1,1.2c-0.1,1,0.3,1.4,1.3,1.3c0.5,0,1.1,0,1.6,0c1,0.1,1.4-0.3,1.3-1.3c-0.1-0.7,0-1.4,0.9-1.3
			c1.4,0.2,1.3-0.7,1.3-1.6c0-6.4,0-12.8,0-19.2c0-6.5,0-13,0-19.5c0-0.6,0.3-1.5-0.7-1.5c-1,0-1-0.6-1.1-1.4c0-2.4-0.1-2.4-2.5-2.4
			c-0.2,0-0.3,0-0.5,0c-2.5,0-2.1-0.2-2.2,2.2C165.9,80.1,166.4,81.1,165.4,81.1z M171.3,110.2c0.1,3,0,6.1,0,9.1
			c0,1.2-0.3,1.7-1.5,1.6c-1.5-0.2-3.4,0.6-4.4-0.3c-1-0.9-0.2-2.9-0.3-4.4c0-1,0-2.1,0-3.1c0-2,0.1-4,0-6c-0.1-1.2,0.2-1.7,1.5-1.6
			c1.5,0.2,3.4-0.6,4.4,0.3C172,106.8,171.3,108.7,171.3,110.2z M166.3,82.2c1.2,0.1,2.5,0.1,3.7,0c1,0,1.3,0.4,1.3,1.3
			c0,4.2,0,8.5,0,12.7c0,1-0.2,1.5-1.4,1.4c-1.2-0.1-2.4-0.1-3.6,0c-1,0.1-1.3-0.3-1.3-1.3c0.1-2.2,0-4.3,0-6.5c0-2.1,0-4.2,0-6.3
			C165,82.6,165.3,82.1,166.3,82.2z"/>
		<path class="st0" d="M165.8,93.4c0,3.8,0,3.7,3.7,3.6c1,0,1.2-0.4,1.1-1.3c0-1.9,0-3.8,0-5.7c0-1.3,0-2.5,0-3.7
			c0-3.4,0-3.3-3.3-3.4c-1.4,0-1.6,0.5-1.6,1.7C165.8,87.5,165.8,90.4,165.8,93.4z"/>
		<path class="st0" d="M184.5,113.3C184.4,113.3,184.4,113.3,184.5,113.3c0-1.2,0-2.5,0-3.7c-0.1-4.1,0.7-3.3-3.6-3.4
			c-1,0-1.3,0.3-1.3,1.3c0,3.1,0,6.2,0,9.3c0,3.6,0,3.6,3.6,3.5c1,0,1.4-0.3,1.3-1.3C184.4,117.1,184.5,115.2,184.5,113.3z"/>
		<path class="st0" d="M92.3,81.2c-1.3,0-1.2,0.8-1.2,1.6c0,5.4,0,10.8,0,16.3c0,7.5,0,15,0,22.4c0,0.7-0.3,1.7,1,1.6
			c1.1-0.1,1.4,0.4,1.2,1.3c-0.1,1.1,0.4,1.3,1.3,1.3c0.4,0,0.9,0,1.3,0c1.1,0.1,1.8-0.2,1.6-1.5c-0.1-0.6,0-1.2,0.8-1
			c1.4,0.2,1.5-0.6,1.5-1.6c0-6.4,0-12.8,0-19.2c0-6.5,0-13,0-19.5c0-0.6,0.3-1.5-0.7-1.5c-1.2,0-1.1-0.8-1.1-1.5
			c0-2.8,0.1-2.3-2.4-2.3c0,0-0.1,0-0.2,0c-2.5,0-2.5,0-2.6,2.5C92.9,80.4,93.1,81.2,92.3,81.2z M98.9,119.4c0,1.1-0.2,1.5-1.4,1.5
			c-4.8,0.1-4.8,0.1-4.8-4.6c0-1.1,0-2.2,0-3.3c0-2.1,0-4.1,0-6.2c0-1,0.2-1.4,1.3-1.3c1.6,0.1,3.6-0.5,4.6,0.3
			c1.1,0.8,0.3,2.9,0.4,4.5C99,113.3,98.9,116.4,98.9,119.4z M93.9,82.2c1.3,0.1,2.6,0,3.9,0c0.9,0,1.1,0.3,1.1,1.2
			c0,4.4,0,8.8,0,13.2c0,0.8-0.3,1.2-1.1,1.1c-1.6-0.1-3.6,0.6-4.7-0.3c-1-0.9-0.2-3-0.3-4.5c-0.1-1,0-2,0-2.9c0-2.2,0-4.3,0-6.5
			C92.7,82.5,93,82.1,93.9,82.2z"/>
		<path class="st0" d="M105.2,77.4c-1.7,0.1-3.5,0.1-5.2,0c-1,0-1.2,0.4-1.3,1.3c-0.1,1.4,0.2,2.1,1.8,1.8c0.7-0.1,1.4,0,2.1,0
			c0.9,0,1.7-0.1,2.6,0c1.3,0.1,1.2-0.7,1.2-1.6C106.4,78.1,106.5,77.3,105.2,77.4z"/>
		<path class="st0" d="M112.5,124.7c0,0.7,0.3,0.9,1,0.9c2.2,0,4.4,0,6.6,0c0.7,0,1-0.3,1-1s-0.3-1-1-0.9c-1.1,0-2.2,0-3.2,0
			c-1.1,0-2.3,0-3.4,0C112.7,123.7,112.5,124,112.5,124.7z"/>
		<path class="st0" d="M156.6,113.3c0-1.3,0-2.5,0-3.7c0-3.5,0-3.4-3.4-3.4c-1.3,0-1.6,0.5-1.5,1.6c0.1,3,0,6,0,8.9
			c0,3.8,0,3.7,3.7,3.6c0.9,0,1.2-0.4,1.2-1.3C156.5,117.1,156.6,115.2,156.6,113.3z"/>
		<path class="st0" d="M93.4,93.5c0,3.6,0,3.5,3.5,3.5c1,0,1.5-0.3,1.4-1.4c-0.1-1.8,0-3.7,0-5.5c0-1.2,0-2.5,0-3.7
			c0-3.6,0-3.6-3.7-3.5c-1,0-1.3,0.4-1.3,1.4C93.4,87.3,93.4,90.4,93.4,93.5z"/>
		<path class="st0" d="M106.6,81.1c-1.5,0.1-1.2,1.1-1.2,1.9c0,10.4,0,20.7,0,31.1c0,2.6,0,5.1,0,7.7c0,0.9,0.2,1.5,1.3,1.3
			c1-0.1,1.1,0.5,1,1.2c-0.2,1.2,0.4,1.4,1.4,1.3c0.4,0,0.9,0,1.3,0c1.1,0.1,1.6-0.3,1.5-1.4c-0.1-0.7,0.1-1.2,0.9-1.1
			c1.3,0.2,1.3-0.6,1.3-1.6c0-6.4,0-12.8,0-19.2c0-6.5,0-13,0-19.5c0-0.6,0.4-1.5-0.7-1.5c-1,0-1-0.6-1.1-1.4c0-2.5,0-2.5-2.5-2.5
			c-0.2,0-0.3,0-0.5,0c-2.1,0-2.1,0-2.2,2.2C107,80.1,107.4,81,106.6,81.1z"/>
		<path class="st0" d="M137,81.1c-1.3,0-1.1,0.9-1.1,1.7c0,7.3,0,14.5,0,21.8c0,5.6,0,11.3,0,16.9c0,0.8-0.2,1.6,1.1,1.5
			c1.1-0.1,1.3,0.4,1.2,1.4c-0.1,0.9,0.3,1.3,1.2,1.2c0.5,0,1-0.1,1.5,0c1.1,0.1,1.7-0.2,1.5-1.4c-0.1-0.5-0.1-1.2,0.7-1.1
			c1.7,0.2,1.5-0.8,1.5-1.9c0-11.1,0-22.1,0-33.2c0-1.9,0.3-3.8,0-5.7c0-0.4,0.1-0.9-0.3-1c-1.8-0.3-1.4-1.6-1.4-2.7
			c0-0.9-0.4-1.3-1.3-1.2c-0.4,0.1-0.8,0-1.3,0c-2.6,0-2.6,0-2.7,2.5C137.6,80.4,137.9,81.1,137,81.1z"/>
		<path class="st0" d="M120.6,81.1c-1.4,0.1-1.2,1-1.2,1.8c0,6.4,0,12.8,0,19.2c0,0.6,0,1.3,0,2c0,5.8,0,11.6,0,17.4
			c0,0.5-0.3,1.5,0.5,1.5c1,0,0.5-1,0.6-1.5c0.1-0.4,0-0.8,0-1.1c0-6.9,0-13.8,0-20.7c0-1.3,0.4-1.7,1.7-1.6
			c1.6,0.1,3.3,0.2,4.9,0.1c1.6-0.1,2.2,0.4,2.1,2.1c-0.1,7.2,0,14.3,0,21.5c0,0.5-0.3,1.3,0.7,1.4c1,0.1,0.8-0.7,0.8-1.3
			c0-13.1,0-26.3,0-39.4c0-0.4,0.1-1.1-0.4-1.1c-1.9-0.1-1.4-1.5-1.4-2.5c0-1.1-0.3-1.6-1.5-1.5c-1.3,0.1-2.7,0-4.1,0
			c-2.1,0-2,0-2.1,2.1C121.1,80,121.6,81,120.6,81.1z"/>
		<path class="st0" d="M126.9,98.6c-0.9,0.1-1.8-0.2-1.9,1.3c0,1.1,0.1,2.2,0.1,3.2c0,6.6,0,13.1,0,19.7c0,0.9-0.1,1.7,1.2,1.6
			c1-0.1,2.1,0.3,2-1.5c-0.1-3.9,0-7.7,0-11.6c0,0,0,0,0,0c0-3.8,0-7.6,0-11.4C128.4,98.9,128,98.5,126.9,98.6z"/>
		<path class="st0" d="M128.9,124.6c0,0.6,0.2,1,0.9,1c2.3,0,4.5,0,6.8,0c0.7,0,0.9-0.4,0.9-1c0-0.6-0.3-0.9-0.9-0.8
			c-1.1,0-2.3,0-3.4,0c-1.1,0-2.3,0-3.4,0C129.2,123.7,128.9,124,128.9,124.6z"/>
		<path class="st0" d="M135.8,77.3c-1.7,0.1-3.4,0.1-5,0c-1.1-0.1-1.3,0.4-1.4,1.4c0,1.3,0.2,2,1.7,1.8c0.7-0.1,1.4,0,2.1,0
			c0.9,0,1.7-0.1,2.6,0c1.2,0.1,1.3-0.5,1.3-1.5C137,78.2,137.2,77.3,135.8,77.3z"/>
		<path class="st0" d="M179.4,81.1c-1.1,0-1,0.7-1,1.4c0,3.9,0,7.7,0,11.6c0,9.1,0,18.2,0,27.3c0,1.1,0.1,1.9,1.4,1.7
			c0.6-0.1,0.9,0.3,0.8,0.9c-0.2,1.5,0.5,1.8,1.8,1.6c0.7-0.1,1.4-0.1,2.1,0c1.4,0.2,2-0.3,1.9-1.8c-0.1-6.8,0-13.5,0-20.3
			c0-6.9,0-13.8,0-20.7c0-0.5,0.2-1.4-0.3-1.5c-1.9-0.2-1.3-1.6-1.3-2.5c0-1.2-0.4-1.6-1.5-1.4c-0.3,0-0.6,0-1,0
			c-2.7,0-2.2-0.1-2.3,2.3C180,80.2,180.4,81.1,179.4,81.1z M185.2,119.6c0,1-0.3,1.4-1.3,1.3c-1.2,0-2.5-0.1-3.7,0
			c-1.1,0.1-1.3-0.4-1.3-1.3c0-2.2,0-4.3,0-6.5c0,0,0,0,0,0c0-2.1,0-4.2,0-6.3c0-0.9,0.3-1.3,1.2-1.2c1.6,0.1,3.6-0.6,4.7,0.3
			c1,0.9,0.3,3,0.3,4.5C185.2,113.4,185.1,116.5,185.2,119.6z M180.3,82.2c1.5,0.2,3.5-0.7,4.5,0.4c0.9,0.9,0.2,2.8,0.3,4.2
			c0,1,0,2.1,0,3.1c0,2.1-0.1,4.2,0,6.3c0.1,1.2-0.4,1.5-1.5,1.4c-1.5-0.2-3.5,0.7-4.5-0.4c-0.9-1-0.2-2.9-0.3-4.4
			c0-3.1,0-6.2,0-9.3C178.8,82.4,179.3,82.1,180.3,82.2z"/>
		<path class="st0" d="M150.1,77.3c-1.6,0-3.1,0-4.7-0.1c-1.4,0-2,0.4-1.9,2c0.1,1,0.1,1.5,1.3,1.3c0.7-0.1,1.5,0,2.3,0
			c1,0,2-0.1,2.9,0c1.5,0.2,1.1-1,1.2-1.7C151.4,77.9,151.1,77.3,150.1,77.3z"/>
		<path class="st0" d="M98.3,113.2c0-1.2,0-2.4,0-3.6c0-3.5,0-3.5-3.6-3.5c-1.1,0-1.4,0.4-1.4,1.4c0.1,3,0,6.1,0,9.1
			c0,3.7,0,3.7,3.7,3.6c0.9,0,1.2-0.3,1.2-1.2C98.3,117.1,98.3,115.1,98.3,113.2z"/>
		<path class="st0" d="M116.6,81.1c-1.3,0-2.1,0-2,1.8c0.1,6.3,0.1,12.7,0.1,19h0c0,6.4,0,12.9,0,19.3c0,1.4,0.3,2,1.8,1.8
			c1.2-0.1,2.4,0.4,2.4-1.8c-0.1-12.8-0.1-25.6,0-38.4C118.8,81.2,118,81.1,116.6,81.1z"/>
		<path class="st0" d="M122.6,98.6c-1.3-0.1-1.5,0.7-1.5,1.7c0,7,0,14.1,0,21.2c0,0.7,0.3,1.4,0.5,2c0.3,1.4,1.2,0.8,1.9,0.9
			c1,0.1,0.9-0.7,0.9-1.3c0-3.9,0-7.7,0-11.6h0c0-3.7-0.1-7.5,0-11.2C124.5,98.7,123.7,98.6,122.6,98.6z"/>
		<path class="st0" d="M133.3,123.1c1.2,0.1,2,0.1,2-1.6c-0.1-6.4,0-12.8,0-19.2h0c0-6.5-0.1-13,0-19.5c0-1.7-0.8-1.7-2-1.6
			c-1.1,0-2.2-0.3-2.2,1.6c0.1,12.9,0.1,25.8,0,38.7C131.1,123.4,132.2,123,133.3,123.1z"/>
		<path class="st0" d="M171.3,124.7c0,0.6,0.2,1,0.8,1c2.3,0,4.6,0,6.8,0c0.8,0,0.9-0.4,0.9-1c0-0.6-0.3-0.9-0.9-0.9
			c-1.1,0-2.2,0-3.3,0c-1.2,0-2.4,0-3.6,0C171.5,123.7,171.4,124.1,171.3,124.7z"/>
		<path class="st0" d="M175.5,81.1c-1.4,0-2,0.3-2,1.9c0.1,6.4,0,12.7,0,19.1c0,1.5,0,2.9,0,4.4c0,5,0,10.1,0,15.2
			c0,1.1,0.3,1.6,1.5,1.5c0.4,0,0.8,0,1.1,0c1.3,0.2,1.5-0.4,1.5-1.6c0-12.8,0-25.6,0-38.4C177.7,81.2,176.9,81.2,175.5,81.1z"/>
		<path class="st0" d="M178.1,77.4c-1.6,0.1-3.3,0.1-4.9,0c-1.1-0.1-1.5,0.3-1.5,1.4c0,1.3,0.3,1.9,1.7,1.7c0.7-0.1,1.4,0,2.1,0
			c0.9,0,1.7-0.1,2.6,0c1.3,0.1,1.2-0.7,1.2-1.5C179.4,78.1,179.5,77.3,178.1,77.4z"/>
		<path class="st0" d="M149.4,83.5c0-2.5,0-2.5-2.4-2.4c-0.1,0-0.2,0-0.3,0c-0.9,0-1.3,0.3-1.4,1.3c-0.2,1.6,0.1,3.2,0.1,4.9
			c0,11.4,0,22.8,0,34.2c0,1.9,1,1.6,2.2,1.6c1.2,0,2,0,2-1.6c-0.1-6.4,0-12.9,0-19.4C149.4,95.9,149.4,89.7,149.4,83.5z"/>
		<path class="st0" d="M161.4,123.1c1.2,0,2.1,0.2,2.1-1.7c-0.1-12.9-0.1-25.7,0-38.6c0-1.4-0.5-1.8-1.8-1.7
			c-1.1,0.1-2.4-0.5-2.3,1.6c0.1,6.5,0,12.9,0,19.4c0,6.4,0.1,12.8,0,19.2C159.4,123.1,160.2,123.1,161.4,123.1z"/>
		<path class="st0" d="M143.1,124.6c0,0.7,0.3,1,1,1c1.1,0,2.2,0,3.2,0c1.1,0,2.3,0,3.4,0c0.7,0,1-0.2,1-0.9c0-0.7-0.3-1-1-1
			c-2.2,0-4.4,0-6.6,0C143.4,123.7,143.1,123.9,143.1,124.6z"/>
		<path class="st0" d="M157.2,124.6c0,0.7,0.3,1,0.9,1c2.2,0,4.4,0,6.6,0c0.6,0,1-0.2,1-0.9c0-0.9-0.4-1-1.1-1c-1,0-2.1,0-3.1,0
			c-1.1,0-2.3,0-3.4,0C157.5,123.7,157.2,123.9,157.2,124.6z"/>
		<path class="st0" d="M179.6,93.4c0,3.7,0,3.7,3.7,3.5c0.9-0.1,1.2-0.3,1.2-1.3c0-1.9,0-3.8,0-5.7c0-1.3,0-2.5,0-3.7
			c0-3.5,0-3.5-3.6-3.4c-1,0-1.3,0.3-1.3,1.3C179.6,87.3,179.6,90.4,179.6,93.4z"/>
		<path class="st0" d="M220.4,94.3c0,1.8,0,3.7,0,5.5c0,0.7,0.1,1.3,1,1.2c2,0,4,0,6,0c0.8,0,1-0.4,1-1.1c0-3.7,0-7.5,0-11.2
			c0-1-0.5-1.2-1.3-1.2c-1.8,0-3.7,0.1-5.5,0c-1.1,0-1.3,0.4-1.3,1.3C220.5,90.7,220.4,92.5,220.4,94.3z"/>
		<path class="st0" d="M221.5,121.4c2,0,3.9,0,5.9,0c0.8,0,1.2-0.3,1.2-1.1c0-1.9,0-3.7,0-5.5c0,0,0,0,0,0c0-1.9,0-3.8,0-5.7
			c0-0.7-0.2-1.1-1-1.1c-2,0-4,0-6,0c-0.7,0-1.1,0.2-1.1,1c0,3.8,0,7.6,0,11.4C220.4,121.1,220.7,121.4,221.5,121.4z"/>
		<path class="st0" d="M57.4,53c-2.2,0.1-4.5,0.1-6.7,0c-1.1,0-1.4,0.3-1.4,1.4c0,3.2,0,6.4,0,9.6c0,3.3,0,6.5,0,9.8
			c0,0.9,0.2,1.3,1.2,1.2c1.6-0.1,3.1,0,4.7,0c0.8,0,1-0.3,1.1-1.1c0.1-3,0.5-6.1-2.6-8.1c-0.1-0.1-0.2-0.2-0.3-0.4
			c-0.8-1.4-0.2-2.6,1.4-2.7c0.9,0,1.8,0,2.8,0c0.9,0,1.2-0.3,1.2-1.3c0-2.4-0.1-4.8,0-7.2C58.8,53.2,58.4,53,57.4,53z"/>
		<path class="st0" d="M193.7,137.5c-1.5-2.3-3-4.6-4.4-7c-0.1,0-0.2,0.1-0.3,0.2c1.1,2.5,2.1,5,3.2,7.6c0,0,0,0,0,0h1
			c0.1,0,0.1-0.1,0.2-0.1C194,138.4,193.9,137.9,193.7,137.5z"/>
		<path class="st0" d="M56.9,47.9c-2.2,0.1-4.4,0-6.6,0c-3.5,0-3-0.7-3.1,3.2c0,1,0.4,1.2,1.3,1.2c1.5,0,3,0,4.6,0
			c1.6,0,3.3,0,4.9,0c0.3,0,1,0,0.7-0.5c-0.5-0.9-0.3-1.8-0.3-2.7C58.2,48.2,57.9,47.9,56.9,47.9z"/>
		<path class="st0" d="M205,83.1c2.8,0.9,2.8,0.9,2.8-2c0-2.8,0-2.8-2.7-3.8c-0.7-0.3-1.3-0.5-2-0.8c-1.9-0.8-1.9-0.8-1.9,1.3
			C201.3,81.8,201.3,81.8,205,83.1z"/>
		<path class="st0" d="M85.8,80.5c1.7-0.1,3.5-0.1,5.2,0c0.9,0,1.2-0.3,1.3-1.2c0.1-1.5-0.3-2.2-1.9-2c-0.6,0.1-1.2,0-1.8,0
			c-0.9,0-1.9,0.1-2.8,0c-1.3-0.1-1.2,0.8-1.2,1.6C84.6,79.8,84.5,80.6,85.8,80.5z"/>
		<path class="st0" d="M10.3,64.8c9.4-0.1,18.9,0,28.3-0.1c3.1,0,2.7,0.6,2.8-2.9c0-1.3-0.5-1.5-1.6-1.5c-4.9,0.1-9.8,0-14.6,0
			c-5,0-10,0.1-15,0c-1.3,0-1.8,0.4-1.6,1.7c0,0.3,0.1,0.7,0,1C8.4,64.4,9,64.8,10.3,64.8z"/>
		<path class="st0" d="M195.2,62.7c1.5,0,1.7,0.5,1.6,1.8c0,0.8-0.5,1.2-0.9,1.7c-0.7,0.9-2,1.5-2.1,2.6c-0.2,2-0.7,4.3,0.2,5.9
			c0.6,1,2.8,0.2,4.3,0.3c0.3,0,0.5,0,0.8,0c1.1,0.2,1.5-0.3,1.5-1.4c0-3.1,0-6.3,0-9.4c0-3.3,0-6.5,0-9.8c0-0.8,0-1.4-1.1-1.3
			c-2.4,0.1-4.9,0-7.3,0c-0.8,0-1.1,0.3-1.1,1c0,1.5,0,3,0,4.6C191.1,62.7,191.1,62.8,195.2,62.7z"/>
		<path class="st0" d="M186.7,30.3c-2,0-3.9,0.1-5.9,0c-1.5-0.1-1.9,0.5-1.8,1.9c0.1,1.2-0.3,2.6,1.8,2.3c0.9-0.1,1.8,0,2.8,0
			c1,0,2,0,2.9,0c1.1,0.1,1.7-0.3,1.5-1.4c0-0.4,0-0.9,0-1.3C188.2,30.6,187.7,30.3,186.7,30.3z"/>
		<path class="st0" d="M192.2,52.4c1.6,0,3.1,0,4.7,0c1,0,2,0,2.9,0c3.3-0.1,2.9,0.7,3-3c0-1.1-0.3-1.4-1.4-1.4
			c-2.3,0.1-4.5,0-6.8,0c-2.7,0-2.7,0-2.9,2.8c0,0.3,0.1,0.6-0.1,0.8C190.9,52.4,191.7,52.3,192.2,52.4z"/>
		<path class="st0" d="M47.1,58.2c-0.9,0.5-1.8,0.9-2.7,1.1c-1.8,0.5-2.5,1.5-2.3,3.4c0.2,1.9,0,1.9,1.7,1.3
			c0.9-0.3,1.8-0.7,2.8-0.9c1.7-0.4,2.5-1.2,2.1-2.7c0-0.5,0-0.8,0-1.1C48.8,57.9,48.4,57.5,47.1,58.2z"/>
		<path class="st0" d="M242.1,128.6c-5.3,0.1-10.6,0-16,0c-5.4,0-10.8,0-16.1,0c-1.1,0-1.5,0.3-1.5,1.4c0.1,2.8,0.1,5.6,0.1,8.3
			h35.2c-0.2-2.7-0.1-5.5-0.1-8.2C243.8,128.8,243.3,128.6,242.1,128.6z"/>
		<path class="st0" d="M189.1,137.1c-42.8,0-85.7,0-128.5,0c-0.3,0-0.5,0-0.8,0c-0.4,0-1,0.6-1.4,1.3h133.1
			C191.2,137.4,190.4,137.1,189.1,137.1z"/>
		<path class="st0" d="M41.4,138.4c0-2.9,0-5.8,0-8.7c0-0.8-0.3-1.1-1.1-1.1c-10.9,0-21.8,0-32.7,0c-1.1,0-1.4,0.4-1.4,1.4
			c0,2.8,0.1,5.6,0,8.4H41.4z"/>
		<path class="st0" d="M201.3,117.9c0,3.5,0,3.6,3.4,3.5c1.2,0,1.6,0.4,1.4,1.5c-0.1,0.5,0,1-0.4,1.5c-0.7,1-0.3,2.7,0.5,3
			c0.9,0.3,1.8,0.6,2.8,0.6c10.2,0,20.4,0,30.6,0c1.4,0,1.7-0.5,1.7-1.8c-0.1-6.6,0-13.3,0-19.9c0-6.8,0-13.6,0-20.3
			c0-1.2-0.3-1.5-1.6-1.5c-8.6,0.1-17.3,0.1-25.9,0.3c-3.8,0.1-7.5-0.1-11-1.7c-1.3-0.6-1.7-0.2-1.7,1.2
			C201.3,95.5,201.3,106.7,201.3,117.9z M220.9,86.9c2.4,0,4.8,0,7.1,0c0.8,0,1.1,0.3,1.1,1.1c0,4.2,0,8.4,0,12.5
			c0,0.9-0.3,1.1-1.1,1.1c-2.4,0-4.8,0-7.1,0c-0.9,0-1.1-0.3-1.1-1.1c0-2.1,0-4.2,0-6.3c0-2.1,0-4.1,0-6.2
			C219.8,87.1,220.1,86.9,220.9,86.9z M219.8,108.2c0-0.7,0.2-1,0.9-1c2.5,0,5,0,7.5,0c0.9,0,1,0.5,0.9,1.1c0,2.1,0,4.2,0,6.3
			c0,2.1,0,4.1,0,6.2c0,0.9-0.3,1.2-1.2,1.2c-2.4,0-4.8,0-7.2,0c-0.8,0-1-0.3-1-1C219.8,116.8,219.8,112.5,219.8,108.2z"/>
		<path class="st0" d="M69.3,96.9c0.8-0.1,1.1-0.4,1.1-1.2c0-1.9,0-3.9,0-5.8c0-1.2,0-2.4,0-3.6c0-3.6,0-3.5-3.5-3.5
			c-1.1,0-1.4,0.4-1.4,1.4c0,3,0,6.1,0,9.1C65.5,97.2,65.5,97.2,69.3,96.9z"/>
		<path class="st0" d="M70.4,113.2c0-1.2,0-2.5,0-3.7c0-3.3,0-3.3-3.4-3.3c-1.3,0-1.5,0.5-1.5,1.6c0.1,3,0,6.1,0,9.1
			c0,3.5,0,3.5,3.5,3.4c1.1,0,1.4-0.4,1.3-1.4C70.3,117,70.4,115.1,70.4,113.2z"/>
		<path class="st0" d="M64.7,81.1c-1.5,0.1-1.1,1-1.1,1.8c0,6.8,0,13.6,0,20.3c0,6,0,12,0,18.1c0,4.5,0,4.5,4.5,4.3
			c1,0,1.4-0.3,1.3-1.3c-0.1-0.6-0.1-1.3,0.8-1.2c1.4,0.2,1.5-0.6,1.5-1.6c0-5.6,0-11.2,0-16.8c0-7.3,0-14.6,0-22
			c0-0.6,0.3-1.5-0.7-1.5c-1.1,0-1-0.7-1-1.4c0-2.5,0.5-2.4-2.4-2.4c-2.2,0-2.2,0-2.3,2.2C65.1,80.1,65.6,81.1,64.7,81.1z M71,110.3
			c0,1,0,2,0,2.9h0c0,2.1,0,4.2,0,6.3c0,1-0.3,1.4-1.3,1.3c-1.2-0.1-2.5-0.1-3.7,0c-1,0-1.3-0.4-1.3-1.3c0.1-4.3,0-8.5,0-12.8
			c0-0.9,0.3-1.3,1.2-1.2c1.6,0.1,3.7-0.5,4.7,0.3C71.7,106.6,71,108.8,71,110.3z M66.1,82.1c4.9-0.1,4.9-0.2,4.9,4.8
			c0,1,0,2.1,0,3.1c0,2.1,0,4.1,0,6.2c0,1-0.2,1.5-1.3,1.4c-1.5-0.2-3.5,0.6-4.6-0.3c-1.1-0.9-0.3-3-0.3-4.5c-0.1-3.1,0-6.2,0-9.3
			C64.8,82.6,65,82.2,66.1,82.1z"/>
		<path class="st0" d="M79.3,113.2c0,1.2,0,2.4,0,3.6c0,3.6,0,3.6,3.6,3.5c1,0,1.3-0.3,1.3-1.3c0-3.1,0-6.2,0-9.3
			c0-3.8,0-3.8-3.8-3.5c-0.9,0-1.1,0.4-1.1,1.2C79.3,109.3,79.3,111.2,79.3,113.2z"/>
		<path class="st0" d="M78,81.1c-1.1,0-1,0.7-1,1.5c0,4.3,0,8.7,0,13c0,8.6,0,17.3,0,25.9c0,0.7-0.3,1.7,1,1.6
			c1.2-0.1,1.4,0.5,1.3,1.5c-0.1,0.9,0.4,1.1,1.2,1.1c0.5,0,1,0,1.5,0c1.1,0.1,1.8-0.2,1.6-1.5c-0.1-0.7,0.2-1.2,1-1
			c1.2,0.2,1.3-0.6,1.3-1.5c0-6.5,0-13,0-19.5c0-6.4,0-12.9,0-19.4c0-0.5,0.4-1.5-0.7-1.5c-1.2,0-1.1-0.7-1.1-1.5
			c0-2.5,0.5-2.3-2.3-2.3c-0.1,0-0.2,0-0.3,0c-2.5,0-2.5,0-2.5,2.4C78.7,80.3,79,81.1,78,81.1z M78.6,83.3c0-0.8,0.3-1.2,1.1-1.1
			c0.1,0,0.2,0,0.3,0c1.5,0.1,3.4-0.6,4.4,0.3c1,0.9,0.2,2.9,0.3,4.3c0.1,1,0,2.1,0,3.1c0,2.1,0,4.2,0,6.3c0,1-0.3,1.5-1.3,1.4
			c-1.2-0.1-2.5,0-3.7,0c-0.8,0-1.2-0.3-1.2-1.1C78.6,92.1,78.6,87.7,78.6,83.3z M79.9,105.5c5-0.2,5-0.2,5,4.8c0,1,0,2,0,2.9
			c0,2.1,0,4.2,0,6.3c0,1-0.2,1.3-1.3,1.3c-5,0.2-5,0.2-5-4.8c0-3.1,0-6.2,0-9.3C78.6,105.9,78.9,105.5,79.9,105.5z"/>
		<path class="st0" d="M60.9,130.8c-0.1,0-0.2-0.1-0.3-0.1c-1.4,2.3-2.9,4.5-4.3,6.8c-0.2,0.3-0.6,0.9,0.2,0.9c0.1,0,0.1,0,0.2,0
			h1.1c0-0.1,0.1-0.1,0.1-0.2C58.8,135.7,59.9,133.2,60.9,130.8z"/>
		<path class="st0" d="M56.5,123c0,0.4,0.1,0.6,0.5,0.7c1.7,0.5,3.4,1,5.1,1.5c0.3,0.1,0.6,0.1,0.6-0.2c0.1-0.4-0.2-0.6-0.5-0.7
			c-1.6-0.6-3.2-1.2-4.9-1.8C57,122.4,56.5,122.3,56.5,123z"/>
		<path class="st0" d="M79.3,93.5c0,3.6,0,3.5,3.5,3.5c1,0,1.5-0.3,1.4-1.4c-0.1-1.8,0-3.7,0-5.5c0-1.2,0-2.4,0-3.6
			c-0.1-4.2,0.8-3.4-3.6-3.6c-1,0-1.3,0.3-1.3,1.3C79.3,87.3,79.3,90.4,79.3,93.5z"/>
		<path class="st0" d="M46.4,138.3c2.5,0,5-0.1,7.5,0c1.1,0,1.4-0.4,1.4-1.5c-0.1-1.8,0-3.7,0-5.5c0-2,0-3.9,0-5.9
			c0-1-0.3-1.3-1.3-1.3c-2.5,0-5,0-7.5,0c-0.9,0-1.4,0.2-1.4,1.3c0,3.9,0,7.7,0,11.6C45.1,138,45.4,138.4,46.4,138.3z"/>
		<path class="st0" d="M44.5,137.3c0-1.4,0-2.7,0-4.1c0-1.2,0-2.5,0-3.7c0-0.5,0.3-1.4-0.6-1.4c-0.7,0-1.8,0-1.8,1.3
			c0,2.6,0,5.2-0.1,7.8c0,0.7,0.2,1.1,0.9,1.1h0.6C44.1,138.3,44.5,138.1,44.5,137.3z"/>
		<path class="st0" d="M50.8,121.5c2,0,4-0.3,6,0.2c1.1,0.3,1.2-0.1,1.2-1c0-12.7,0-25.4,0-38.1c0-0.4,0.1-1.1-0.3-1.2
			c-1.4-0.2-2.3-2-4-1.4c-0.8,0.3-1.7,0.1-2.6,0c-1.4-0.2-1.9,0.3-1.8,1.8c0.1,6.3,0,12.7,0,19.1c0,6.3,0,12.7,0,19.1
			C49.3,121.1,49.6,121.5,50.8,121.5z"/>
		<path class="st0" d="M185.7,129.3c-31.9,0-63.7,0-95.6,0c-8.9,0-17.7,0-26.5,0c-1.1,0-2.4,1.3-2.3,2.6c0.2,1.2,1.3,0.6,2,0.6
			c20.6,0,41.1,0,61.7,0c20.5,0,41,0,61.5,0c0.5,0,1.1,0,1.6,0c0.5,0,0.6-0.3,0.5-0.8C188.2,129.8,187.6,129.3,185.7,129.3z"/>
		<path class="st0" d="M62.1,133.1c-0.2,0-0.3,0-0.5,0c-0.8,0-2.2,1.8-2,2.7c0.2,1.1,1.2,0.5,1.7,0.5c6.4,0.1,12.9,0,19.4,0
			c14.8,0,29.5,0,44.3,0c21.1,0,42.2,0,63.3,0c0.5,0,1,0,1.5,0c0.5,0,0.6-0.2,0.5-0.7c-0.4-1.9-1.1-2.5-3-2.5
			C145.6,133.1,103.8,133.1,62.1,133.1z"/>
		<path class="st0" d="M191.5,68.7c-11,0-22-0.1-33-0.1c-11.1,0-22.3,0-33.4,0c0,0,0,0.1,0,0.1c-15.1,0-30.3,0-45.4,0
			c-6.9,0-13.8,0-20.7,0c-1.6,0-2.4,0.3-2.1,2c0.2,1,0,2.1,0,3.1c0,2.9,0,2.9,3,2.9c32.6,0,65.3,0,97.9,0c11.2,0,22.4,0,33.5,0
			c1.4,0,1.8-0.4,1.7-1.7c-0.1-1.6-0.1-3.2,0-4.7C193.1,69,192.7,68.7,191.5,68.7z"/>
		<path class="st0" d="M62.6,81.4c-1.1-0.4-2.3-0.3-3.3-0.1c-1,0.2-0.5,1.2-0.5,1.8c0,12.1,0,24.3,0,36.4c0,2.8,0,2.8,2.7,3.8
			c1.2,0.5,1.4,0.1,1.4-1.1c-0.1-6.6,0-13.2,0-19.8c0-6.6,0-13.1,0-19.7C62.9,82.3,63.1,81.6,62.6,81.4z"/>
		<path class="st0" d="M10,76.1c0,1,0.3,1.5,1.4,1.4c2.7,0,5.4,0,8.1,0c1,0,1.3-0.3,1.3-1.3c-0.1-2.9,0-5.8,0-8.6
			c0-0.9,0.2-1.3,1.2-1.2c2.3,0.1,4.7,0.1,7,0c1.1,0,1.3,0.4,1.3,1.3c0,2.8,0,5.5,0,8.3c0,0.5,0.1,1.1-0.7,1.7c2.5,0,4.5-0.2,6.5,0
			c4.1,0.4,7.8-0.5,11.5-2.2c0.9-0.4,1.3-0.8,1.3-1.9c-0.1-3-0.1-6.1,0-9.1c0-1.3-0.3-1.5-1.6-1.1c-2.2,0.7-4.3,1.9-6.7,1.9
			c-9.6,0-19.2,0-28.8,0c-1.3,0-1.7,0.3-1.7,1.6C10.1,70.1,10.1,73.1,10,76.1z"/>
		<path class="st0" d="M132.1,39.4c0,1.4,0,2.7,0,4.1c0,0.4,0.2,0.6,0.6,0.6c3.3,0,6.5,0,10.2,0c-3.1-2.9-6.4-4.3-10-5.3
			C132.4,38.6,132.1,38.8,132.1,39.4z"/>
		<path class="st0" d="M147.8,44.1c1,0,0.8-0.5,0.3-1c-0.8-0.9-1.6-1.8-2.5-2.5c-5.9-5.1-13-6.9-19.6-6.9c-4.3,0-7.6,0.3-10.7,1.2
			c-5.3,1.4-9.8,4-13.4,8.2c-0.2,0.2-0.6,0.4-0.4,0.8c0.1,0.4,0.5,0.3,0.8,0.3c2.1,0.1,4.1,0.3,5.6-1.7c0.4-0.5,1-0.8,1.6-1.1
			c5.7-3.5,11.9-4.4,18.4-3.9c5.2,0.4,10.3,1.7,14.2,5.2C143.9,44.2,145.8,44.1,147.8,44.1z"/>
		<path class="st0" d="M89,44.1c3.4-0.1,6.7,0,10.1,0c0.8,0,1.3-0.3,1.8-0.9c2.5-3.2,5.7-5.6,9.4-7.3c6.6-3,13.6-3.6,20.7-2.5
			c7.3,1.1,13.6,4.1,18.2,10c0.5,0.6,1,0.7,1.7,0.7c3.3,0,6.6,0,9.9,0c1.2,0,1.5-0.4,1.4-1.5c-0.1-3.5-0.2-7-0.1-10.6
			c0-1.4-0.3-1.8-1.8-1.8c-11.8,0.1-23.5,0-35.3,0c-0.9,0-1.8,0-2.8,0c-10.9,0-21.8,0-32.7,0c-1.5,0-1.9,0.4-1.9,1.9
			c0.1,3.5,0,7-0.1,10.6C87.6,43.8,87.9,44.1,89,44.1z"/>
		<path class="st0" d="M161.3,44.8c-12,0-24.1,0-36.1,0c-11.4,0-22.9,0-34.3,0c-4,0-4,0-4,4.1c0,2.2,0,2.2,2.2,2.2
			c23.3,0,46.5,0,69.8,0c4.4,0,4.3,0,4.4-4.4C163.2,45.1,162.7,44.8,161.3,44.8z"/>
		<path class="st0" d="M118.6,39c0,1.5,0,3,0,4.5c0,0.4,0.3,0.5,0.7,0.6c0.5,0,0.6-0.3,0.6-0.7c0-0.7,0-1.4,0-2.1c0-0.7,0-1.4,0-2.1
			c0-0.4-0.1-0.8-0.6-0.7C118.9,38.4,118.6,38.6,118.6,39z"/>
		<path class="st0" d="M188.6,51.7c-21.2,0-42.5,0-63.7,0c-8.7,0-17.5,0-26.2,0c-12.5,0-25.1,0-37.6,0c-1.4,0-1.8,0.3-1.7,1.7
			c0.1,2.4,0,4.8,0,7.2c0,2.2,0,2.2,2.2,2.2c34.6,0,69.2,0,103.7,0c7.8,0,15.5,0,23.3,0c1.5,0,1.9-0.5,1.9-1.9
			c-0.1-2.4-0.1-4.9,0-7.3C190.6,52,190.1,51.7,188.6,51.7z"/>
		<path class="st0" d="M128.1,38c-2,0-3.9,0-5.8,0c-1.4-0.1-1.7,0.5-1.7,1.8c0.1,4.3,0,4.3,4.3,4.3c1,0,2.1,0,3.1,0
			c0.9,0,1.4-0.2,1.3-1.3c-0.1-1.2-0.1-2.4,0-3.6C129.4,38.3,129,38,128.1,38z"/>
		<path class="st0" d="M130.6,38.4c-0.6,0-0.5,0.5-0.5,0.8c0,0.7,0,1.3,0,2c0,0.7,0,1.4,0,2.1c0,0.4,0,0.8,0.6,0.8
			c0.4,0,0.8-0.1,0.8-0.6c0-1.5,0-2.9,0-4.4C131.3,38.6,131,38.4,130.6,38.4z"/>
		<path class="st0" d="M84,25c-3.5,1.5-7.1,3-10.7,4.4c-1.3,0.5-2.4,1.1-1.9,2.5c0,2.4,0,2.4,2,1.6c3.5-1.4,7-2.8,10.6-4.1
			c1.5-0.6,2.8-1,1.5-2.9c-0.1-0.1-0.1-0.3,0-0.5C85.7,24.7,85.2,24.5,84,25z"/>
		<path class="st0" d="M201.2,64.3c0,3.3,0,6.5,0,9.8c0,0.4-0.1,1,0.4,1.1c2.5,0.9,4.8,2.5,7.5,2.6c4,0.2,8.1,0.1,12.1,0.1
			c-1.1-0.2-1.5-0.8-1.4-2c0.1-2.6,0.1-5.2,0-7.8c0-1.2,0.2-1.7,1.5-1.6c2.2,0.1,4.3,0.1,6.5,0c1.2,0,1.4,0.4,1.4,1.5
			c-0.1,2.8,0,5.7,0,8.5c0,0.9,0.3,1.2,1.2,1.2c2.7-0.1,5.4-0.1,8.1,0c1.2,0,1.5-0.5,1.4-1.5c0-3-0.1-6,0-9c0-1.4-0.5-1.7-1.8-1.7
			c-7.7,0.1-15.4-0.1-23.1,0.1c-4.3,0.1-8.6-0.1-12.5-2C201.6,63,201.2,63.3,201.2,64.3z"/>
		<path class="st0" d="M177.2,34.5c-4.2-1.6-8.3-3.3-12.5-4.9c-0.5-0.2-1.3-1-1.7,0.2c-0.3,0.9-0.4,1.7,0.9,2.2
			c4.5,1.5,9,3.1,13.5,4.7c0.9,0.3,1.2,0.1,1.1-0.9C178.7,34.8,177.8,34.7,177.2,34.5z"/>
		<path class="st0" d="M238.6,64.8c3,0,2.6,0.5,2.7-2.7c0-1.3-0.3-1.7-1.6-1.6c-4.9,0.1-9.9,0-14.8,0c-4.6,0-9.2,0-13.8,0
			c-2.5,0-2.5,0-2.6,2.6c0,1.3,0.3,1.8,1.7,1.8C219.6,64.7,229.1,64.8,238.6,64.8z"/>
		<path class="st0" d="M239.4,78.1c-8.9,0.2-17.8,0.2-26.7,0.3c-4.3,0-4.2,0-4.2,4.2c0,1.3,0.5,1.5,1.6,1.5c4.9-0.1,9.9,0,14.8,0
			c0-0.1,0-0.2,0-0.3c4.2,0,8.5,0,12.7,0c3.7,0,3.6,0,3.7-3.8C241.4,78.5,240.9,78.1,239.4,78.1z"/>
		<path class="st0" d="M228.5,68.2c0-0.7-0.2-1.1-1-1.1c-2,0-4,0-6,0c-0.8,0-1.1,0.3-1,1.1c0,2.5,0,5,0,7.5c0,0.8,0.4,1,1.1,1
			c2,0,3.9,0,5.9,0c0.8,0,1.2-0.3,1.1-1.1c-0.1-1.1,0-2.3,0-3.4C228.5,70.8,228.5,69.5,228.5,68.2z"/>
		<path class="st0" d="M117,38.8c-3.5,1-6.9,2.4-10,5.3c2.6,0,4.7,0,6.8,0c4.2,0,4.2,0,4-4.2c0-0.2,0-0.3,0-0.5
			C117.8,38.8,117.5,38.7,117,38.8z"/>
		<path class="st0" d="M55.4,63.4c-0.5,0-1.5-0.5-1.5,0.6c0,1.1,1,0.6,1.5,0.7c0.2,0,0.3,0,0.5,0c23,0,45.9,0,68.9,0
			c23.2,0,46.4,0,69.5,0c0.6,0,1.7,0.5,1.7-0.7c0-1.2-1.1-0.5-1.7-0.7c-0.1,0-0.3,0-0.5,0c-23.5,0-46.9,0-70.4,0
			C100.8,63.4,78.1,63.4,55.4,63.4z"/>
		<path class="st0" d="M205.2,59.2c-0.6-0.3-1.3-0.5-1.9-0.8c-2-0.8-2-0.8-2,1.3c0,0.1,0,0.2,0,0.6c-0.6,1.7,0.6,2.3,2.2,2.8
			c1.1,0.3,2.2,0.7,3.2,1.1c0.8,0.3,1.1,0.2,1.2-0.7C208,60.4,208.1,60.4,205.2,59.2z"/>
		<path class="st0" d="M180.2,35.1c-0.7,0-1.1,0.2-1.1,1c0,0.8,0.3,1.2,1.1,1.1c1.4,0,2.8-0.1,4.2,0c1.5,0.1,2.4-0.5,3-2.1
			C184.9,35.1,182.6,35.1,180.2,35.1z"/>
		<path class="st0" d="M143.8,20.8c-12.6-1.6-25.2-1.7-37.8,0c0,0.1,0,0.3,0,0.4c12.6,0,25.1,0,37.7,0
			C143.8,21.1,143.8,20.9,143.8,20.8z"/>
		<path class="st0" d="M161.6,26.7c-12.2-0.1-24.4,0-36.6,0c-12.1,0-24.2,0-36.3,0c-0.7,0-1.6-0.4-1.9,0.3c-0.3,0.7,0.4,1.4,0.7,2.1
			c0.5,0.9,1.3,0.5,2,0.5c23.5,0,47,0,70.5,0c0.5,0,1,0,1.5,0c1.6,0,1.6-1.5,1.8-2.3C163.3,26.1,162.1,26.7,161.6,26.7z"/>
		<path class="st0" d="M176.8,29.4c-3.4-1.3-6.7-2.7-10.1-4.1c-1.9-0.8-1.9-0.8-2.3,1.2c-0.1,0.4-0.2,0.7-0.4,1.1
			c-0.3,0.5-0.2,0.9,0.4,1.1c4.4,1.7,8.8,3.4,13.2,5.1c0.7,0.3,1,0.1,1-0.7c0-0.4,0-0.8,0-1.4C178.8,30.6,178.1,29.9,176.8,29.4z"/>
		<path class="st0" d="M161.3,20.1c-5.3-3.1-11.1-4.6-17.1-5.6c-10.7-1.8-21.4-1.9-32.1-0.8c-7.5,0.7-14.9,2.1-21.8,5.5
			c-1,0.5-2,1.1-3.2,1.8c0.4,0.2,0.6,0.3,0.7,0.3c6.2-0.3,12.4,0.3,18.6-1c11.3-2.2,22.8-1.7,34.2-0.6c3.9,0.4,7.6,2,11.7,1.6
			c3-0.3,6,0,9,0c0.4,0,0.9,0.2,1.2-0.2c0-0.1-0.1-0.2-0.1-0.3C162,20.6,161.7,20.3,161.3,20.1z"/>
		<path class="st0" d="M164,32.8c-0.9-0.3-1.2-0.1-1.1,0.8c0.5,3.8-0.7,7.6,0.9,11.4c0.4,0.9,0.7,1.1,1.5,1.1c3.2,0,6.4,0,9.6,0
			c3.3,0,6.5,0,9.8,0c1.1,0,1.4-0.3,1.4-1.4c-0.1-1.7-0.1-3.4,0-5c0.1-1.3-0.4-1.7-1.7-1.7c-2.5,0-5,0.3-7.6-0.6
			C172.5,35.6,168.2,34.3,164,32.8z"/>
		<path class="st0" d="M92.2,17.2c21.8-6.6,43.7-6.6,65.6,0C141.6,2.1,108,2.2,92.2,17.2z"/>
		<path class="st0" d="M161.6,22c-16.9,0-33.8,0-50.7,0c-7.6,0-15.3,0-23,0c-0.6,0-1.5-0.3-1.7,0.3c-0.4,1.1-0.3,2.3,0,3.4
			c0.2,0.7,1.1,0.4,1.8,0.4c12.3,0,24.5,0,36.8,0c8.5,0,17,0,25.6,0c3.9,0,7.8,0,11.7,0c0.5,0,1.3,0.3,1.4-0.4c0.2-1,0.3-2.2,0-3.2
			C163.4,21.6,162.3,22,161.6,22z"/>
		<path class="st0" d="M8.7,106.1c0,6.7,0,13.4,0,20c0,1.5,0.5,1.9,1.9,1.9c10-0.1,20.1,0,30.1,0c0.5,0,1.1-0.1,1.6-0.2
			c2.5-0.6,2.8-1.2,1.7-3.7c-0.7-1.6-0.1-2.7,1.7-2.7c0.4,0,0.9-0.1,1.3,0c1.3,0.2,1.8-0.3,1.8-1.7c0-11.8,0-23.7,0-35.5
			c0-1.3-0.2-1.7-1.6-1.2c-2.2,0.8-4.3,1.9-6.7,1.8c-10-0.1-20.1-0.2-30.1-0.4c-1.3,0-1.7,0.3-1.7,1.6C8.7,92.7,8.7,99.4,8.7,106.1z
			 M29,122.1c-2.4-0.1-4.8,0-7.2,0c-0.8,0-1.1-0.2-1.1-1c0-4.3,0-8.6,0-12.9c0-0.8,0.4-1,1.1-1c2.4,0,4.8,0.1,7.2,0
			c1,0,1.2,0.4,1.1,1.3c0,2.1,0,4.1,0,6.2s0,4.1,0,6.2C30.2,121.8,29.9,122.1,29,122.1z M20.8,94.2c0-2,0.1-3.9,0-5.9
			c0-1.1,0.2-1.6,1.4-1.5c2.2,0.1,4.4,0.1,6.7,0c0.9,0,1.4,0.2,1.3,1.3c0,4.1,0,8.1,0,12.2c0,0.9-0.2,1.4-1.3,1.3
			c-2.3-0.1-4.7-0.1-7,0c-1,0-1.2-0.3-1.2-1.2C20.8,98.4,20.8,96.3,20.8,94.2z"/>
		<path class="st0" d="M64.5,37.2c1.8,0,3.6,0,5.3,0c0.8,0,1-0.3,1-1.1c0-0.8-0.3-1-1.1-1c-2.4,0-4.7,0-7.3,0
			C63.4,37,63.6,37.2,64.5,37.2z"/>
		<path class="st0" d="M85.5,29.5c-4.3,1.7-8.5,3.4-12.8,5c-0.3,0.1-0.5,0.2-0.7,0.3c-0.7,0.5-0.5,1.2-0.3,1.8
			c0.1,0.5,0.6,0.2,1,0.1c4.5-1.6,9.1-3.2,13.6-4.7c0.8-0.3,1-0.7,1-1C87,29.4,86.7,29,85.5,29.5z"/>
		<path class="st0" d="M65.1,37.9c-0.9-0.1-1.2,0.3-1.1,1.1c0,1.8,0.1,3.7,0,5.5c0,1.1,0.3,1.5,1.5,1.5c3.2-0.1,6.4,0,9.6,0
			c2.9,0,5.9,0,8.8,0c1.9,0,3.1-1,3.2-2.8c0.1-3.3,0.1-6.5,0.1-9.8c0-0.8-0.2-1-1-0.7c-2.2,0.8-4.4,1.5-6.6,2.3
			C74.8,36.8,70.2,38.6,65.1,37.9z"/>
		<path class="st0" d="M68,34.4c3.1,0,3,0,2.9-3c0-0.8-0.3-1.2-1.2-1.1c-2.2,0-4.4,0-6.7,0c-0.5,0-1,0-1.2,0.6
			c-0.7,2.3,0.1,3.5,2.5,3.5c0.7,0,1.3,0,2,0C66.9,34.4,67.4,34.4,68,34.4z"/>
		<path class="st0" d="M189.5,46.7c-4,0.1-7.9,0-11.9,0c-3.8,0-7.6,0-11.4,0c-2.8,0-2.3-0.2-2.5,2.5c-0.1,1.5,0.4,1.9,1.9,1.9
			c7.5-0.1,15.1,0,22.6,0c3.2,0,2.6,0.3,2.8-2.8C191.2,46.9,190.7,46.7,189.5,46.7z"/>
		<path class="st0" d="M58.9,48.9c0,2.2,0,2.2,2.1,2.2c7.5,0,15,0,22.5,0c2.7,0,2.7,0.6,2.7-2.7c0-1.3-0.4-1.7-1.7-1.6
			c-4,0.1-8,0-12,0c-3.8,0-7.6,0-11.4,0C58.4,46.7,58.9,46.6,58.9,48.9z"/>
		<path class="st0" d="M8.6,82.4c0,1,0.3,1.4,1.4,1.4c4.9-0.1,9.9,0,14.8,0c0,0.1,0,0.2,0,0.3c4.2,0,8.3,0,12.5,0
			c4.2,0,4.1,0,4.1-4.2c0-1.2-0.4-1.5-1.6-1.5c-9.1,0-18.1-0.1-27.2-0.2C8.5,78.1,8.5,78.1,8.6,82.4z"/>
		<path class="st0" d="M193,78.9c0-0.9,0.1-1.6-1.2-1.6c-1.6,0.1-3.1,0.1-4.7,0c-1.3-0.1-1.8,0.3-1.7,1.7c0.1,1.1,0.3,1.6,1.4,1.5
			c0.8-0.1,1.5,0,2.3,0c0.9,0,1.9-0.1,2.8,0C193.2,80.6,193,79.7,193,78.9z"/>
		<path class="st0" d="M62.3,126.7c0.4-0.6-0.2-0.7-0.6-0.9c-1.6-0.5-3.2-1-4.8-1.4c-0.5-0.1-1-0.3-1,0.5c0,3.7,0,7.4,0,11.1
			c0.1,0,0.2,0.1,0.4,0.1C58.3,133,60.3,129.9,62.3,126.7z"/>
		<path class="st0" d="M193.7,136.2c0.1,0,0.2-0.1,0.4-0.1c0-2.9,0-5.9,0-8.8c0-3.1,0-3.1-2.9-2.2c-1.2,0.4-3.1,0.3-3.5,1.3
			c-0.3,1,1.1,2.2,1.8,3.3C190.8,131.8,192.3,134,193.7,136.2z"/>
		<path class="st0" d="M192.6,122.5c-1.7,0.6-3.4,1.3-5.2,1.9c-0.3,0.1-0.4,0.3-0.3,0.6c0.1,0.3,0.3,0.3,0.5,0.3
			c1.8-0.5,3.5-1,5.3-1.6c0.5-0.1,0.5-0.5,0.4-0.9C193.3,122.3,192.9,122.4,192.6,122.5z"/>
		<path class="st0" d="M58.7,80.5c0.7,0,1.3,0,2,0c1,0,2,0,2.9,0c1.3,0,0.9-1,0.9-1.6c0-0.6,0.3-1.5-0.9-1.5c-2,0-3.9,0-5.8,0
			c-0.4,0-0.7,0.1-0.8,0.6C56.4,79.6,57,80.5,58.7,80.5z"/>
		<path class="st0" d="M204.8,137c-0.1-1.9,0-3.8,0-5.7c0-2,0-3.9,0-5.9c0-0.9-0.3-1.3-1.2-1.2c-2.6,0-5.2,0-7.8,0
			c-0.9,0-1.1,0.3-1.1,1.1c0,3.9,0,7.8,0,11.7c0,0.9,0.3,1.3,1.2,1.3c2.2,0,4.3,0,6.5,0h1.4C204.6,138.3,204.9,137.9,204.8,137z"/>
		<path class="st0" d="M195,122.1c-0.6,0-1,0.1-0.9,0.8c0,0.6,0.5,0.7,0.9,0.7c3.1,0,6.3,0,9.4,0c0.5,0,1,0,1-0.7
			c0-0.8-0.5-0.7-1-0.7c-1.5,0-3.1,0-4.6,0C198.3,122.1,196.6,122.1,195,122.1z"/>
		<path class="st0" d="M199.5,75.7c-1.6,0-3.2,0-4.9,0c-0.6,0-0.9,0.2-1,0.9c-0.3,2.6-0.2,2.7,2.5,2.7c0.3,0,0.7,0,1,0
			c0.8,0,1.6,0,2.4,0c1.2,0.1,1.2-0.7,1.1-1.5C200.4,77,201.3,75.7,199.5,75.7z"/>
		<path class="st0" d="M206,128.1c-0.7-0.1-0.5,0.6-0.5,1.1c0,1.3,0,2.6,0,3.9h0c0,1.5,0,2.9,0,4.4c0,0.7,0.4,1,1,0.9
			c0.2,0,0.3,0,0.5,0h0.3c0.3,0,0.6-0.1,0.6-0.7c0-2.9,0-5.7-0.1-8.6C207.7,128.1,206.6,128.2,206,128.1z"/>
		<path class="st0" d="M77,77.4c-1.7,0.1-3.4,0.1-5,0c-1.1-0.1-1.5,0.3-1.5,1.5c0,1.3,0.3,1.9,1.7,1.7c0.7-0.1,1.4,0,2.1,0
			c0.9,0,1.8,0,2.8,0c1.4,0.1,1-0.9,1-1.7C78.2,78.1,78.2,77.3,77,77.4z"/>
		<path class="st0" d="M74.3,81.2c-1.1,0-2.1-0.2-2.1,1.5c0.1,6.5,0,12.9,0,19.3c0,6.5,0,13,0,19.5c0,1.1,0.3,1.7,1.5,1.5
			c0.4,0,0.8,0,1.1,0c1.2,0.2,1.6-0.3,1.6-1.5c0-13,0-25.9,0-38.9C76.4,80.8,75.3,81.2,74.3,81.2z"/>
		<path class="st0" d="M88.3,81.2c-1.1-0.1-1.9,0-1.9,1.6c0.1,6.5,0,12.9,0,19.4c0,6.1,0,12.3,0,18.4c0,2.6,0,2.6,2.6,2.6
			c1.2,0,1.5-0.4,1.5-1.5c0-13-0.1-25.9,0-38.9C90.5,80.7,89.3,81.3,88.3,81.2z"/>
		<path class="st0" d="M84.2,124.6c0,0.8,0.4,1,1.1,1c1,0,2.1,0,3.1,0v0c1.1,0,2.2,0,3.3,0c0.7,0,1.1-0.2,1.1-1c0-0.8-0.4-0.9-1-0.9
			c-2.2,0-4.3,0-6.5,0C84.5,123.7,84.2,123.9,84.2,124.6z"/>
		<path class="st0" d="M98.3,124.6c0,0.8,0.4,1,1.1,1c1,0,2,0,3.1,0c1.1,0,2.2,0,3.2,0c0.6,0,1.2,0,1.2-0.9c0-0.8-0.4-1-1.1-1
			c-2.2,0-4.3,0-6.5,0C98.6,123.7,98.3,123.9,98.3,124.6z"/>
		<path class="st0" d="M191.9,83.2c0,9.7,0,19.3,0,29c0,2.8,0,5.6,0,8.5c0,0.4-0.3,1.3,0.7,1.1c2.2-0.6,4.3-0.3,6.5-0.3
			c1.3,0,1.5-0.4,1.5-1.6c0-6.4,0-12.7,0-19.1c0-1.1,0-2.3,0-3.4c0-5.3,0-10.6,0-15.9c0-0.6,0.2-1.6-0.8-1.4
			c-2.2,0.4-4.4-0.9-6.6,0.9C192.2,81.8,191.9,82.3,191.9,83.2z"/>
		<path class="st0" d="M62.9,128.1c0,1,1.2,0.5,1.8,0.5c20.1,0,40.2,0,60.3,0c20.2,0,40.4,0,60.6,0c0.5,0,1.3,0.3,1.4-0.3
			c0.2-0.6-0.3-1.3-0.6-1.8c-0.3-0.5-1-0.3-1.5-0.3c-18.1,0-36.3,0-54.4,0c-0.9,0-2.2,0.7-2.4-1.1c0-0.1-0.5-0.2-0.7-0.2
			c-1.6,0-3.3,0-4.9,0c-0.2,0-0.7,0.1-0.7,0.2c-0.1,1.5-1.3,1-2.1,1c-18.2,0-36.5,0-54.7,0C63.5,126.2,62.9,127.1,62.9,128.1z"/>
		<path class="st0" d="M70.1,124.6c0,0.8,0.4,1,1.1,1c1,0,2,0,3.1,0c1.1,0,2.2,0,3.3,0c0.7,0,1.1-0.2,1.1-1c0-0.7-0.4-0.9-1-0.9
			c-2.2,0-4.3,0-6.5,0C70.4,123.7,70.1,123.9,70.1,124.6z"/>
		<path class="st0" d="M191.2,101.9c0-6.1,0-12.1,0-18.2c0-2.5,0-2.5-2.2-2.5c-1.9,0-1.9,0-1.9,2.4c0,11.6,0,23.2,0,34.8
			c0,1.4,0,2.8,0,4.2c0,0.3-0.1,1,0.4,0.9c1.2-0.3,2.3-0.6,3.4-1.1c0.7-0.3,0.4-1.2,0.4-1.8C191.2,114.4,191.2,108.1,191.2,101.9
			L191.2,101.9z"/>
		<path class="st0" d="M102.6,123.1c1.3,0,2-0.1,2-1.8c-0.1-6.4-0.1-12.8-0.1-19.2c0-6.4,0-12.8,0.1-19.2c0-1.5-0.5-1.9-1.9-1.7
			c-1.2,0.1-2.3-0.3-2.3,1.7c0.1,12.8,0.1,25.6,0,38.4C100.5,123.1,101.3,123.1,102.6,123.1z"/>
		<path class="st0" d="M22.7,76.7c1.9,0,3.8-0.1,5.7,0c0.8,0,1.2-0.3,1.1-1.1c0-1.3,0-2.5,0-3.7c0-1.1-0.1-2.2,0-3.3
			c0.1-1-0.2-1.5-1.3-1.5c-1.8,0.1-3.7,0.1-5.5,0c-0.9,0-1.3,0.3-1.2,1.2c0,2.4,0,4.8,0,7.2C21.4,76.4,21.8,76.7,22.7,76.7z"/>
		<path class="st0" d="M118.8,77.4c-0.6,0.1-1.3,0-2,0c-0.9,0-1.8,0-2.8,0c-1.3-0.1-1.2,0.8-1.2,1.6c0,0.8-0.1,1.6,1.2,1.6
			c1.7-0.1,3.5-0.1,5.2,0c1.1,0,1.2-0.4,1.3-1.3C120.6,77.8,120.3,77.1,118.8,77.4z"/>
		<path class="st0" d="M28.2,107.9c-1.8,0-3.7,0.1-5.5,0c-1.1,0-1.3,0.4-1.3,1.3c0,1.8,0,3.6,0,5.4c0,0,0,0,0,0c0,1.8,0,3.7,0,5.5
			c0,0.9,0.3,1.3,1.2,1.2c1.8,0,3.7,0,5.5,0c1,0,1.3-0.3,1.3-1.3c0-3.6,0-7.3,0-10.9C29.6,108.2,29.2,107.9,28.2,107.9z"/>
		<path class="st0" d="M44.5,122.8c0,0.8,0.5,0.7,1,0.7c3.2,0,6.3,0,9.4,0c0.4,0,0.9,0,0.9-0.6c0-0.7-0.4-0.8-0.9-0.8
			c-1.6,0-3.1,0-4.7,0c-1.6,0-3.1,0-4.7,0C45,122.1,44.5,122.1,44.5,122.8z"/>
		<path class="st0" d="M22.5,101c2,0,3.9,0,5.9,0c0.9,0,1.1-0.3,1.1-1.2c0-1.9,0-3.7,0-5.5c0-1.8,0-3.7,0-5.5c0-0.9-0.2-1.3-1.2-1.3
			c-1.9,0.1-3.8,0.1-5.7,0c-0.9,0-1.2,0.3-1.2,1.2c0,3.7,0,7.4,0,11.1C21.4,100.6,21.7,101,22.5,101z"/>
		<path class="st0" d="M42.1,83c-0.1,0.8,0.3,1,1,0.7c1-0.3,2-0.7,2.9-1c2.7-0.9,2.7-0.9,2.6-3.6c0-0.8,0-1.5,0-2.3
			c0-0.5-0.1-1-0.7-0.7c-1.9,0.7-4,1.1-5.5,2.3c-1,0.8-0.2,2.8-0.3,4.2C42.1,82.8,42.1,82.9,42.1,83z"/>
		<path class="st0" d="M195.3,65.5c-47,0-93.7,0-140.8,0c1.1,1.8,2.3,2.7,4.4,2.7c34-0.1,68.1,0,102.1,0c10.1,0,20.2-0.1,30.3,0
			C193.4,68.1,194.3,67,195.3,65.5z"/>
		<path class="st0" d="M51.6,79.3c0.4,0,0.8,0,1.1,0s0.8,0,1.1,0c2.6,0,2.6,0,2.4-2.5c0-0.7-0.3-1.1-1-1.1c-1.7,0-3.3,0-5,0
			c-0.5,0-0.8,0.1-0.9,0.7C48.9,78.7,49.3,79.3,51.6,79.3z"/>
	</g>
	<g>
		<g>
			<g class="st1">
				<path class="st2" d="M50.4,65.7h29.2c4.9,0,8.6,1.4,11.2,4.1s3.9,6.2,3.9,10.2c0,3.4-0.9,6.3-2.8,8.8c-1.2,1.6-3.1,2.9-5.4,3.9
					c3.6,1,6.3,2.7,8,5.1c1.7,2.4,2.6,5.5,2.6,9.1c0,3-0.6,5.7-1.8,8.1c-1.2,2.4-2.9,4.3-5,5.7c-1.3,0.9-3.3,1.5-5.9,1.9
					c-3.5,0.5-5.8,0.8-7,0.8H50.4V65.7z M66.1,88.3h6.8c2.4,0,4.1-0.5,5.1-1.4c0.9-1,1.4-2.3,1.4-4.2c0-1.7-0.5-3-1.4-3.9
					s-2.6-1.4-5-1.4h-6.9L66.1,88.3L66.1,88.3z M66.1,111h7.9c2.7,0,4.6-0.5,5.7-1.6c1.1-1.1,1.7-2.6,1.7-4.4c0-1.7-0.5-3.1-1.6-4.1
					s-3-1.6-5.7-1.6h-7.9L66.1,111L66.1,111z"/>
				<path class="st3" d="M50.4,65.7h29.2c4.9,0,8.6,1.4,11.2,4.1s3.9,6.2,3.9,10.2c0,3.4-0.9,6.3-2.8,8.8c-1.2,1.6-3.1,2.9-5.4,3.9
					c3.6,1,6.3,2.7,8,5.1c1.7,2.4,2.6,5.5,2.6,9.1c0,3-0.6,5.7-1.8,8.1c-1.2,2.4-2.9,4.3-5,5.7c-1.3,0.9-3.3,1.5-5.9,1.9
					c-3.5,0.5-5.8,0.8-7,0.8H50.4V65.7z M66.1,88.3h6.8c2.4,0,4.1-0.5,5.1-1.4c0.9-1,1.4-2.3,1.4-4.2c0-1.7-0.5-3-1.4-3.9
					s-2.6-1.4-5-1.4h-6.9L66.1,88.3L66.1,88.3z M66.1,111h7.9c2.7,0,4.6-0.5,5.7-1.6c1.1-1.1,1.7-2.6,1.7-4.4c0-1.7-0.5-3.1-1.6-4.1
					s-3-1.6-5.7-1.6h-7.9L66.1,111L66.1,111z"/>
			</g>
			<g>
				<g>
					<path class="st4" d="M49.4,65.7h29.2c4.9,0,8.6,1.4,11.2,4.1s3.9,6.2,3.9,10.2c0,3.4-0.9,6.3-2.8,8.8c-1.2,1.6-3.1,2.9-5.4,3.9
						c3.6,1,6.3,2.7,8,5.1c1.7,2.4,2.6,5.5,2.6,9.1c0,3-0.6,5.7-1.8,8.1c-1.2,2.4-2.9,4.3-5,5.7c-1.3,0.9-3.3,1.5-5.9,1.9
						c-3.5,0.5-5.8,0.8-7,0.8H49.4V65.7z M65.1,88.3h6.8c2.4,0,4.1-0.5,5.1-1.4c0.9-1,1.4-2.3,1.4-4.2c0-1.7-0.5-3-1.4-3.9
						s-2.6-1.4-5-1.4h-6.9L65.1,88.3L65.1,88.3z M65.1,111h7.9c2.7,0,4.6-0.5,5.7-1.6c1.1-1.1,1.7-2.6,1.7-4.4
						c0-1.7-0.5-3.1-1.6-4.1s-3-1.6-5.7-1.6h-7.9L65.1,111L65.1,111z"/>
				</g>
				<g>
					<path class="st4" d="M49.4,65.7h29.2c4.9,0,8.6,1.4,11.2,4.1s3.9,6.2,3.9,10.2c0,3.4-0.9,6.3-2.8,8.8c-1.2,1.6-3.1,2.9-5.4,3.9
						c3.6,1,6.3,2.7,8,5.1c1.7,2.4,2.6,5.5,2.6,9.1c0,3-0.6,5.7-1.8,8.1c-1.2,2.4-2.9,4.3-5,5.7c-1.3,0.9-3.3,1.5-5.9,1.9
						c-3.5,0.5-5.8,0.8-7,0.8H49.4V65.7z M65.1,88.3h6.8c2.4,0,4.1-0.5,5.1-1.4c0.9-1,1.4-2.3,1.4-4.2c0-1.7-0.5-3-1.4-3.9
						s-2.6-1.4-5-1.4h-6.9L65.1,88.3L65.1,88.3z M65.1,111h7.9c2.7,0,4.6-0.5,5.7-1.6c1.1-1.1,1.7-2.6,1.7-4.4
						c0-1.7-0.5-3.1-1.6-4.1s-3-1.6-5.7-1.6h-7.9L65.1,111L65.1,111z"/>
				</g>
			</g>
		</g>
		<g>
			<g class="st1">
				<path class="st4" d="M105.1,65.7h29.2c4.9,0,8.6,1.4,11.2,4.1s3.9,6.2,3.9,10.2c0,3.4-0.9,6.3-2.8,8.8c-1.2,1.6-3.1,2.9-5.4,3.9
					c3.6,1,6.3,2.7,8,5.1c1.7,2.4,2.6,5.5,2.6,9.1c0,3-0.6,5.7-1.8,8.1c-1.2,2.4-2.9,4.3-5,5.7c-1.3,0.9-3.3,1.5-5.9,1.9
					c-3.5,0.5-5.8,0.8-7,0.8h-26.9V65.7z M120.8,88.3h6.8c2.4,0,4.1-0.5,5.1-1.4c0.9-1,1.4-2.3,1.4-4.2c0-1.7-0.5-3-1.4-3.9
					s-2.6-1.4-5-1.4h-6.9L120.8,88.3L120.8,88.3z M120.8,111h7.9c2.7,0,4.6-0.5,5.7-1.6c1.1-1.1,1.6-2.6,1.6-4.4
					c0-1.7-0.6-3.1-1.6-4.1c-1.1-1-3-1.6-5.7-1.6h-7.9L120.8,111L120.8,111z"/>
				<path class="st4" d="M105.1,65.7h29.2c4.9,0,8.6,1.4,11.2,4.1s3.9,6.2,3.9,10.2c0,3.4-0.9,6.3-2.8,8.8c-1.2,1.6-3.1,2.9-5.4,3.9
					c3.6,1,6.3,2.7,8,5.1c1.7,2.4,2.6,5.5,2.6,9.1c0,3-0.6,5.7-1.8,8.1c-1.2,2.4-2.9,4.3-5,5.7c-1.3,0.9-3.3,1.5-5.9,1.9
					c-3.5,0.5-5.8,0.8-7,0.8h-26.9V65.7z M120.8,88.3h6.8c2.4,0,4.1-0.5,5.1-1.4c0.9-1,1.4-2.3,1.4-4.2c0-1.7-0.5-3-1.4-3.9
					s-2.6-1.4-5-1.4h-6.9L120.8,88.3L120.8,88.3z M120.8,111h7.9c2.7,0,4.6-0.5,5.7-1.6c1.1-1.1,1.6-2.6,1.6-4.4
					c0-1.7-0.6-3.1-1.6-4.1c-1.1-1-3-1.6-5.7-1.6h-7.9L120.8,111L120.8,111z"/>
			</g>
			<g>
				<g>
					<path class="st4" d="M104.1,65.7h29.2c4.9,0,8.6,1.4,11.2,4.1s3.9,6.2,3.9,10.2c0,3.4-0.9,6.3-2.8,8.8
						c-1.2,1.6-3.1,2.9-5.4,3.9c3.6,1,6.3,2.7,8,5.1c1.7,2.4,2.6,5.5,2.6,9.1c0,3-0.6,5.7-1.8,8.1c-1.2,2.4-2.9,4.3-5,5.7
						c-1.3,0.9-3.3,1.5-5.9,1.9c-3.5,0.5-5.8,0.8-7,0.8h-26.9V65.7z M119.8,88.3h6.8c2.4,0,4.1-0.5,5.1-1.4c0.9-1,1.4-2.3,1.4-4.2
						c0-1.7-0.5-3-1.4-3.9s-2.6-1.4-5-1.4h-6.9L119.8,88.3L119.8,88.3z M119.8,111h7.9c2.7,0,4.6-0.5,5.7-1.6
						c1.1-1.1,1.6-2.6,1.6-4.4c0-1.7-0.6-3.1-1.6-4.1c-1.1-1-3-1.6-5.7-1.6h-7.9L119.8,111L119.8,111z"/>
				</g>
				<g>
					<path class="st4" d="M104.1,65.7h29.2c4.9,0,8.6,1.4,11.2,4.1s3.9,6.2,3.9,10.2c0,3.4-0.9,6.3-2.8,8.8
						c-1.2,1.6-3.1,2.9-5.4,3.9c3.6,1,6.3,2.7,8,5.1c1.7,2.4,2.6,5.5,2.6,9.1c0,3-0.6,5.7-1.8,8.1c-1.2,2.4-2.9,4.3-5,5.7
						c-1.3,0.9-3.3,1.5-5.9,1.9c-3.5,0.5-5.8,0.8-7,0.8h-26.9V65.7z M119.8,88.3h6.8c2.4,0,4.1-0.5,5.1-1.4c0.9-1,1.4-2.3,1.4-4.2
						c0-1.7-0.5-3-1.4-3.9s-2.6-1.4-5-1.4h-6.9L119.8,88.3L119.8,88.3z M119.8,111h7.9c2.7,0,4.6-0.5,5.7-1.6
						c1.1-1.1,1.6-2.6,1.6-4.4c0-1.7-0.6-3.1-1.6-4.1c-1.1-1-3-1.6-5.7-1.6h-7.9L119.8,111L119.8,111z"/>
				</g>
			</g>
		</g>
		<g>
			<g class="st1">
				<path class="st2" d="M193.4,99.8l13.6,4.7c-0.9,4.4-2.4,8-4.3,11s-4.4,5.1-7.3,6.6s-6.6,2.2-11.2,2.2c-5.5,0-9.9-0.9-13.4-2.7
					c-3.5-1.8-6.5-5-9-9.6s-3.8-10.4-3.8-17.6c0-9.5,2.2-16.9,6.6-22c4.4-5.1,10.7-7.7,18.8-7.7c6.4,0,11.3,1.5,15,4.4
					c3.6,2.9,6.3,7.4,8.1,13.5l-13.8,3.5c-0.5-1.8-1-3-1.5-3.8c-0.9-1.4-1.9-2.4-3.2-3.1c-1.3-0.7-2.7-1.1-4.2-1.1
					c-3.5,0-6.2,1.6-8.1,4.9c-1.4,2.4-2.1,6.2-2.1,11.3c0,6.4,0.9,10.8,2.5,13.1c1.7,2.4,4.1,3.6,7.1,3.6c3,0,5.2-1,6.8-2.9
					C191.6,106.2,192.7,103.4,193.4,99.8z"/>
				<path class="st5" d="M193.4,99.8l13.6,4.7c-0.9,4.4-2.4,8-4.3,11s-4.4,5.1-7.3,6.6s-6.6,2.2-11.2,2.2c-5.5,0-9.9-0.9-13.4-2.7
					c-3.5-1.8-6.5-5-9-9.6s-3.8-10.4-3.8-17.6c0-9.5,2.2-16.9,6.6-22c4.4-5.1,10.7-7.7,18.8-7.7c6.4,0,11.3,1.5,15,4.4
					c3.6,2.9,6.3,7.4,8.1,13.5l-13.8,3.5c-0.5-1.8-1-3-1.5-3.8c-0.9-1.4-1.9-2.4-3.2-3.1c-1.3-0.7-2.7-1.1-4.2-1.1
					c-3.5,0-6.2,1.6-8.1,4.9c-1.4,2.4-2.1,6.2-2.1,11.3c0,6.4,0.9,10.8,2.5,13.1c1.7,2.4,4.1,3.6,7.1,3.6c3,0,5.2-1,6.8-2.9
					C191.6,106.2,192.7,103.4,193.4,99.8z"/>
			</g>
			<g>
				<g>
					<path class="st4" d="M192.4,99.8l13.6,4.7c-0.9,4.4-2.4,8-4.3,11s-4.4,5.1-7.3,6.6s-6.6,2.2-11.2,2.2c-5.5,0-9.9-0.9-13.4-2.7
						c-3.5-1.8-6.5-5-9-9.6s-3.8-10.4-3.8-17.6c0-9.5,2.2-16.9,6.6-22c4.4-5.1,10.7-7.7,18.8-7.7c6.4,0,11.3,1.5,15,4.4
						c3.6,2.9,6.3,7.4,8.1,13.5l-13.8,3.5c-0.5-1.8-1-3-1.5-3.8c-0.9-1.4-1.9-2.4-3.2-3.1c-1.3-0.7-2.7-1.1-4.2-1.1
						c-3.5,0-6.2,1.6-8.1,4.9c-1.4,2.4-2.1,6.2-2.1,11.3c0,6.4,0.9,10.8,2.5,13.1c1.7,2.4,4.1,3.6,7.1,3.6c3,0,5.2-1,6.8-2.9
						C190.6,106.2,191.7,103.4,192.4,99.8z"/>
				</g>
				<g>
					<path class="st4" d="M192.4,99.8l13.6,4.7c-0.9,4.4-2.4,8-4.3,11s-4.4,5.1-7.3,6.6s-6.6,2.2-11.2,2.2c-5.5,0-9.9-0.9-13.4-2.7
						c-3.5-1.8-6.5-5-9-9.6s-3.8-10.4-3.8-17.6c0-9.5,2.2-16.9,6.6-22c4.4-5.1,10.7-7.7,18.8-7.7c6.4,0,11.3,1.5,15,4.4
						c3.6,2.9,6.3,7.4,8.1,13.5l-13.8,3.5c-0.5-1.8-1-3-1.5-3.8c-0.9-1.4-1.9-2.4-3.2-3.1c-1.3-0.7-2.7-1.1-4.2-1.1
						c-3.5,0-6.2,1.6-8.1,4.9c-1.4,2.4-2.1,6.2-2.1,11.3c0,6.4,0.9,10.8,2.5,13.1c1.7,2.4,4.1,3.6,7.1,3.6c3,0,5.2-1,6.8-2.9
						C190.6,106.2,191.7,103.4,192.4,99.8z"/>
				</g>
			</g>
		</g>
	</g>
	<rect x="6.2" y="140.6" class="st4" width="237.6" height="18.4"/>
	<g>
		<path class="st6" d="M50.2,142.6h2.9v7.8c0,1.2,0,2,0.1,2.4c0.1,0.6,0.4,1.1,0.9,1.4s1.1,0.5,1.9,0.5c0.8,0,1.4-0.2,1.9-0.5
			s0.7-0.7,0.8-1.2s0.1-1.3,0.1-2.4v-7.9h2.9v7.5c0,1.7-0.1,2.9-0.2,3.6s-0.4,1.3-0.9,1.8s-1,0.9-1.7,1.2s-1.6,0.4-2.8,0.4
			c-1.4,0-2.4-0.2-3.1-0.5s-1.3-0.7-1.7-1.2s-0.7-1-0.8-1.6c-0.2-0.8-0.3-2-0.3-3.6V142.6z"/>
		<path class="st6" d="M68.9,156.9v-14.3h2.8l5.9,9.6v-9.6h2.7v14.3h-2.9l-5.8-9.3v9.3H68.9z"/>
		<path class="st6" d="M87.3,156.9v-14.3h2.9v14.3H87.3z"/>
		<path class="st6" d="M100.8,156.9l-5.1-14.3h3.1l3.6,10.6l3.5-10.6h3.1l-5.1,14.3H100.8z"/>
		<path class="st6" d="M114.7,156.9v-14.3h10.6v2.4h-7.7v3.2h7.2v2.4h-7.2v3.9h8v2.4H114.7z"/>
		<path class="st6" d="M132.2,156.9v-14.3h6.1c1.5,0,2.6,0.1,3.3,0.4s1.2,0.7,1.7,1.4s0.6,1.4,0.6,2.3c0,1.1-0.3,2-0.9,2.7
			s-1.6,1.1-2.8,1.3c0.6,0.4,1.1,0.8,1.5,1.2s1,1.2,1.6,2.3l1.7,2.8h-3.5l-2.1-3.1c-0.7-1.1-1.3-1.8-1.5-2.1s-0.6-0.5-0.9-0.6
			s-0.8-0.2-1.5-0.2h-0.6v6H132.2z M135.1,148.7h2.1c1.4,0,2.3-0.1,2.6-0.2s0.6-0.3,0.8-0.6s0.3-0.6,0.3-1.1c0-0.5-0.1-0.9-0.4-1.2
			s-0.6-0.5-1.1-0.6c-0.2,0-0.9,0-2.1,0h-2.3V148.7z"/>
		<path class="st6" d="M150,152.3l2.8-0.3c0.2,0.9,0.5,1.6,1,2.1s1.2,0.7,2.1,0.7c0.9,0,1.6-0.2,2.1-0.6s0.7-0.9,0.7-1.4
			c0-0.3-0.1-0.6-0.3-0.9s-0.5-0.4-1-0.6c-0.3-0.1-1.1-0.3-2.3-0.6c-1.5-0.4-2.6-0.9-3.3-1.4c-0.9-0.8-1.3-1.7-1.3-2.9
			c0-0.7,0.2-1.4,0.6-2s1-1.1,1.8-1.5s1.7-0.5,2.8-0.5c1.8,0,3.1,0.4,4.1,1.2s1.4,1.8,1.4,3.2l-2.9,0.1c-0.1-0.7-0.4-1.3-0.8-1.6
			s-1-0.5-1.8-0.5c-0.8,0-1.5,0.2-2,0.5c-0.3,0.2-0.5,0.5-0.5,0.9c0,0.3,0.1,0.6,0.4,0.9c0.4,0.3,1.3,0.6,2.7,1s2.4,0.7,3.1,1
			s1.2,0.8,1.6,1.5s0.6,1.4,0.6,2.3c0,0.8-0.2,1.6-0.7,2.3s-1.1,1.2-1.9,1.6s-1.9,0.5-3.1,0.5c-1.8,0-3.2-0.4-4.2-1.3
			S150.2,153.9,150,152.3z"/>
		<path class="st6" d="M168.2,156.9v-14.3h2.9v14.3H168.2z"/>
		<path class="st6" d="M181.2,156.9V145h-4.2v-2.4h11.4v2.4h-4.2v11.9H181.2z"/>
		<path class="st6" d="M198.1,156.9v-6l-5.2-8.3h3.4l3.4,5.7l3.3-5.7h3.3l-5.3,8.3v6H198.1z"/>
	</g>
</g>
</svg>
